<svg xmlns="http://www.w3.org/2000/svg" viewBox="0 0 24 24" id="Photography-Camera-1--Streamline-Pixel" height="24" width="24">
  <desc>
    Photography Camera 1 Streamline Icon: https://streamlinehq.com
  </desc>
  <title>photography-camera-1</title>
  <g>
    <path d="m14.287500000000001 10.290000000000001 0 1.1400000000000001 1.1400000000000001 0 0 4.574999999999999 1.1400000000000001 0 0 -4.574999999999999 5.715 0 0 6.855 1.1475 0 0 -12.57 -1.1475 0 0 4.574999999999999 -7.995 0z" fill="#000000" stroke-width="0.75"></path>
    <path d="M21.142500000000002 18.285h1.1400000000000001v1.1475h-1.1400000000000001Z" fill="#000000" stroke-width="0.75"></path>
    <path d="M21.142500000000002 4.574999999999999h1.1400000000000001v1.1400000000000001h-1.1400000000000001Z" fill="#000000" stroke-width="0.75"></path>
    <path d="M20.0025 6.862500000000001h1.1400000000000001v1.1400000000000001h-1.1400000000000001Z" fill="#000000" stroke-width="0.75"></path>
    <path d="M2.8575 19.4325h18.285v1.1400000000000001H2.8575Z" fill="#000000" stroke-width="0.75"></path>
    <path d="M16.5675 8.0025h3.435v1.1400000000000001h-3.435Z" fill="#000000" stroke-width="0.75"></path>
    <path d="M16.5675 5.715h3.435v1.1475h-3.435Z" fill="#000000" stroke-width="0.75"></path>
    <path d="M15.4275 6.862500000000001h1.1400000000000001v1.1400000000000001h-1.1400000000000001Z" fill="#000000" stroke-width="0.75"></path>
    <path d="M14.287500000000001 16.005h1.1400000000000001v1.1400000000000001h-1.1400000000000001Z" fill="#000000" stroke-width="0.75"></path>
    <path d="M13.14 3.4275h8.0025V4.574999999999999H13.14Z" fill="#000000" stroke-width="0.75"></path>
    <path d="m10.86 16.005 2.2800000000000002 0 0 -1.1475 1.1475 0 0 -2.2874999999999996 -1.1475 0 0 1.1475 -1.1400000000000001 0 0 -1.1475 1.1400000000000001 0 0 -1.1400000000000001 -2.2800000000000002 0 0 1.1400000000000001 -1.1475 0 0 2.2874999999999996 1.1475 0 0 1.1475z" fill="#000000" stroke-width="0.75"></path>
    <path d="M9.712499999999999 9.1425h4.574999999999999v1.1475h-4.574999999999999Z" fill="#000000" stroke-width="0.75"></path>
    <path d="M9.712499999999999 17.145h4.574999999999999v1.1400000000000001h-4.574999999999999Z" fill="#000000" stroke-width="0.75"></path>
    <path d="M12 4.574999999999999h1.1400000000000001v1.1400000000000001H12Z" fill="#000000" stroke-width="0.75"></path>
    <path d="M8.5725 16.005h1.1400000000000001v1.1400000000000001h-1.1400000000000001Z" fill="#000000" stroke-width="0.75"></path>
    <path d="M6.285 3.4275h3.4275V4.574999999999999H6.285Z" fill="#000000" stroke-width="0.75"></path>
    <path d="M3.9975 8.0025h2.2874999999999996v1.1400000000000001H3.9975Z" fill="#000000" stroke-width="0.75"></path>
    <path d="m12 6.862500000000001 0 -1.1475 -1.1400000000000001 0 0 -1.1400000000000001 -1.1475 0 0 1.1400000000000001 -3.4275 0 0 -1.1400000000000001 -1.1400000000000001 0 0 1.1400000000000001 -2.2874999999999996 0 0 1.1475 9.1425 0z" fill="#000000" stroke-width="0.75"></path>
    <path d="M1.71 18.285h1.1475v1.1475H1.71Z" fill="#000000" stroke-width="0.75"></path>
    <path d="M1.71 6.862500000000001h1.1475v1.1400000000000001H1.71Z" fill="#000000" stroke-width="0.75"></path>
    <path d="m1.71 11.43 5.715 0 0 4.574999999999999 1.1475 0 0 -4.574999999999999 1.1400000000000001 0 0 -1.1400000000000001 -8.0025 0 0 -2.2874999999999996 -1.1400000000000001 0 0 10.2825 1.1400000000000001 0 0 -6.855z" fill="#000000" stroke-width="0.75"></path>
  </g>
</svg>