<svg xmlns="http://www.w3.org/2000/svg" viewBox="0 0 24 24" id="Interface-Essential-List--Streamline-Pixel" height="24" width="24">
  <desc>
    Interface Essential List Streamline Icon: https://streamlinehq.com
  </desc>
  <title>interface-essential-list</title>
  <g>
    <path d="M22.29 17.715h1.1400000000000001v2.2874999999999996h-1.1400000000000001Z" fill="#000000" stroke-width="0.75"></path>
    <path d="M22.29 10.852500000000001h1.1400000000000001v2.2874999999999996h-1.1400000000000001Z" fill="#000000" stroke-width="0.75"></path>
    <path d="M22.29 3.9975h1.1400000000000001v2.2874999999999996h-1.1400000000000001Z" fill="#000000" stroke-width="0.75"></path>
    <path d="M8.5725 20.0025h13.7175v1.1400000000000001H8.5725Z" fill="#000000" stroke-width="0.75"></path>
    <path d="M8.5725 13.14h13.7175v1.1475H8.5725Z" fill="#000000" stroke-width="0.75"></path>
    <path d="M8.5725 6.285h13.7175V7.425000000000001H8.5725Z" fill="#000000" stroke-width="0.75"></path>
    <path d="M8.5725 16.5675h13.7175v1.1475H8.5725Z" fill="#000000" stroke-width="0.75"></path>
    <path d="M8.5725 9.712499999999999h13.7175v1.1400000000000001H8.5725Z" fill="#000000" stroke-width="0.75"></path>
    <path d="M8.5725 2.8575h13.7175v1.1400000000000001H8.5725Z" fill="#000000" stroke-width="0.75"></path>
    <path d="M7.4325 17.715h1.1400000000000001v2.2874999999999996H7.4325Z" fill="#000000" stroke-width="0.75"></path>
    <path d="M7.4325 10.852500000000001h1.1400000000000001v2.2874999999999996H7.4325Z" fill="#000000" stroke-width="0.75"></path>
    <path d="M7.4325 3.9975h1.1400000000000001v2.2874999999999996H7.4325Z" fill="#000000" stroke-width="0.75"></path>
    <path d="m0.5700000000000001 20.0025 1.1475 0 0 1.1400000000000001 2.2874999999999996 0 0 -1.1400000000000001 1.1400000000000001 0 0 -2.2874999999999996 -1.1400000000000001 0 0 -1.1475 -2.2874999999999996 0 0 1.1475 -1.1475 0 0 2.2874999999999996z" fill="#000000" stroke-width="0.75"></path>
    <path d="m0.5700000000000001 13.14 1.1475 0 0 1.1475 2.2874999999999996 0 0 -1.1475 1.1400000000000001 0 0 -2.2874999999999996 -1.1400000000000001 0 0 -1.1400000000000001 -2.2874999999999996 0 0 1.1400000000000001 -1.1475 0 0 2.2874999999999996z" fill="#000000" stroke-width="0.75"></path>
    <path d="m1.7175 3.9975 -1.1475 0 0 2.2874999999999996 1.1475 0 0 1.1400000000000001 2.2874999999999996 0 0 -1.1400000000000001 1.1400000000000001 0 0 -2.2874999999999996 -1.1400000000000001 0 0 -1.1400000000000001 -2.2874999999999996 0 0 1.1400000000000001z" fill="#000000" stroke-width="0.75"></path>
  </g>
</svg>